<?xml version="1.0" encoding="UTF-8" standalone="no"?>
<!-- Created with Inkscape (http://www.inkscape.org/) -->

<svg
   width="180.00002mm"
   height="180mm"
   viewBox="0 0 180.00001 180"
   version="1.1"
   id="svg1"
   xml:space="preserve"
   xmlns="http://www.w3.org/2000/svg"
   xmlns:svg="http://www.w3.org/2000/svg"><defs
     id="defs1"><linearGradient
       id="swatch36"><stop
         style="stop-color:#000000;stop-opacity:1;"
         offset="0"
         id="stop36" /></linearGradient><linearGradient
       id="swatch31"><stop
         style="stop-color:#ffffff;stop-opacity:1;"
         offset="0"
         id="stop31" /></linearGradient></defs><g
     id="layer1"
     transform="translate(226.08609,535.25488)"><rect
       style="fill:#000000;fill-opacity:1;stroke:#ffffff;stroke-width:0"
       id="rect1"
       width="180"
       height="180"
       x="-226.08609"
       y="-535.25488" /><path
       d="m -97.771573,-466.42278 c -0.58899,0.0157 -1.17807,0.0563 -1.76526,0.12299 -9.504697,1.07999 -16.353287,8.90286 -16.346287,18.67017 0.003,3.96256 1.05796,7.63704 3.02514,10.53786 3.03343,4.47313 7.08773,7.23416 12.11243,8.24756 0.945887,0.19077 2.076977,0.35689 2.513547,0.36949 1.57934,0.0455 5.06486,-0.48463 6.74739,-1.0263 1.57633,-0.50747 5.00353,-2.3322 5.72575,-3.04891 0.16588,-0.1646 0.64727,-0.59082 1.07022,-0.94671 2.97758,-2.50546 5.32296,-7.02188 5.96656,-11.48767 0.0709,-0.49226 0.27859,-0.52917 2.96726,-0.52917 h 2.89078 l 0.54673,1.32292 c 0.8137,1.96775 1.64018,3.05728 3.26854,4.3093 1.93375,1.48685 3.70024,1.985 6.62492,1.8681 1.88802,-0.0755 2.55722,-0.22618 3.79666,-0.85421 2.98861,-1.51435 4.93251,-4.14348 5.56091,-7.52254 0.783,-4.21039 -1.52335,-8.64818 -5.53662,-10.65568 -1.67156,-0.83611 -1.96435,-0.89635 -4.30671,-0.88315 -1.9693,0.0111 -2.78034,0.13456 -3.74448,0.57154 -3.08738,1.39933 -5.51166,4.0314 -6.03425,6.55206 l -0.16433,0.79375 -2.93057,0.0749 -2.93109,0.0744 -0.1788,-1.34617 c -0.31692,-2.38908 -2.16367,-6.80708 -3.20756,-7.67343 -0.21365,-0.17731 -0.38861,-0.42004 -0.38861,-0.5395 0,-0.30734 -2.73254,-2.85554 -4.1956,-3.91243 -2.87957,-2.08018 -6.96377,-3.19945 -11.08667,-3.08921 z m 1.22939,6.27506 c 2.18453,0.0933 2.7867,0.22638 4.26382,0.9431 0.94589,0.45896 2.31511,1.36193 3.04271,2.0066 5.20642,4.61301 5.46393,13.93074 0.52038,18.82882 -1.4303,1.41714 -3.82842,2.82683 -5.54798,3.26182 -4.67584,1.18283 -9.525777,-0.42016 -12.416817,-4.10363 -1.97511,-2.5165 -3.06997,-6.9027 -2.54454,-10.19111 0.46293,-2.89727 1.02028,-4.30943 2.40967,-6.10919 2.58838,-3.35287 5.85007,-4.82527 10.272757,-4.63641 z m 33.36127,6.99441 a 5,5 0 0 1 4.99969,5.00021 5,5 0 0 1 -4.99969,4.9997 5,5 0 0 1 -5.00021,-4.9997 5,5 0 0 1 5.00021,-5.00021 z"
       style="fill:#ffffff"
       id="path1" /><path
       style="fill:#ffffff;fill-opacity:1"
       d="m -87.832833,-471.18581 c -0.0832,-0.0832 -1.80221,-0.54386 -3.81992,-1.02358 l -3.66856,-0.87222 -1.19062,-2.10978 c -6.319877,-11.19879 -17.564997,-20.48257 -29.585447,-24.42523 -9.59171,-3.14605 -18.43943,-3.69219 -28.40996,-1.75367 -7.52566,1.46317 -16.46397,5.77931 -22.83482,11.02648 -4.32543,3.56253 -9.93227,10.12049 -12.22362,14.29718 -1.62972,2.97067 -1.71236,3.04158 -3.96029,3.39811 -1.13978,0.18078 -2.78671,0.4946 -3.65984,0.69737 -0.87312,0.20278 -1.67679,0.37045 -1.78593,0.3726 -0.45107,0.009 -0.11303,-0.91748 1.46364,-4.01101 7.44404,-14.60576 20.48846,-25.9418 35.37959,-30.74607 5.42525,-1.75033 5.18459,-1.68506 7.8052,-2.11699 5.46453,-0.90067 7.28457,-1.02961 12.49323,-0.88507 10.52189,0.29199 19.00368,2.68907 28.91408,8.17155 2.91175,1.6108 7.11411,4.77484 11.20668,8.43776 0.96884,0.86713 4.047207,4.22728 5.940487,6.48426 2.58511,3.08173 8.22123,12.63618 8.5592,14.50974 0.0883,0.48969 -0.32132,0.85034 -0.6231,0.54857 z"
       id="path65-8-7" /><path
       style="fill:#ffffff;fill-opacity:1"
       d="m -133.35162,-429.24999 c -4.91506,-0.82761 -9.70416,-3.95727 -12.46029,-8.14276 -3.48641,-5.29449 -3.73937,-13.05081 -0.61801,-18.95014 1.21225,-2.29115 4.85805,-5.87607 7.22706,-7.10637 3.98711,-2.07064 4.56279,-2.16435 13.32218,-2.16853 l 7.8053,-0.004 -9e-5,2.91042 v 2.91042 l -7.54063,0.14813 c -6.41897,0.1261 -7.73741,0.22056 -8.86354,0.63502 -1.73986,0.64034 -3.83831,2.03526 -4.90349,3.25955 -1.08349,1.56054 -2.52597,3.47774 -2.24028,5.4823 l 18.23476,0.19144 1e-5,2.7294 v 2.89966 l -7.88238,0.0692 -10.54964,0.0692 0.16805,0.84026 c 1.29467,6.47334 8.11983,8.02301 8.61003,8.12628 0.88304,0.18604 4.03036,0.29382 8.16329,0.27892 3.6994,-0.0133 6.80391,0 6.80391,0 v 6.063 c 0,0 -7.07968,0.0372 -7.08225,0.037 0,0 -7.50477,-0.16296 -8.19405,-0.27903 z"
       id="path64-2-7" /><path
       style="fill:#ffffff;fill-opacity:1"
       d="m -167.02864,-429.29899 c -0.0701,-0.18654 -0.15709,-7.0662 -0.19337,-15.28813 l -0.066,-14.94896 -5.95313,-0.13229 -5.95312,-0.13229 -0.0748,-2.97656 -0.0748,-2.97657 h 15.3545 15.3545 v 3.03774 3.03774 l -6.01927,0.0711 -6.01928,0.0711 -0.0552,15.21354 -0.0552,15.21355 -3.05871,0.0746 c -2.30001,0.0561 -3.09032,-0.01 -3.18612,-0.26458 z"
       id="path63-6-7" /><path
       style="fill:#ffffff;fill-opacity:1"
       d="m -199.56716,-428.93102 c -3.79438,-0.85688 -7.49938,-2.36163 -9.12812,-3.70731 l -0.66146,-0.5465 1.1855,-2.29326 c 0.65202,-1.26129 1.32627,-2.34728 1.49833,-2.41331 0.17206,-0.066 1.1864,0.35747 2.25409,0.94109 1.06768,0.58363 2.89375,1.39201 4.05791,1.79642 1.92009,0.667 2.46069,0.73566 5.82084,0.73936 3.32689,0.004 3.84584,-0.0595 5.09515,-0.61973 0.76505,-0.34309 1.74731,-1.02963 2.18281,-1.52564 0.66343,-0.75561 0.79163,-1.12559 0.7906,-2.2817 -0.001,-1.18453 -0.12011,-1.50672 -0.8411,-2.27607 -1.16358,-1.24163 -2.72439,-1.88761 -8.68267,-3.59352 -10.62991,-3.04345 -12.90642,-5.06041 -12.65519,-11.21237 0.12451,-3.04918 0.65117,-4.34302 2.53489,-6.22751 4.48869,-4.49051 14.4337,-5.13821 21.98386,-1.43177 1.21345,0.5957 2.27695,1.26726 2.36333,1.49237 0.21714,0.56586 -2.03599,4.80339 -2.55401,4.80339 -0.22503,0 -1.32264,-0.47526 -2.43915,-1.05613 -2.70612,-1.40787 -4.84489,-1.93488 -7.91082,-1.94925 -3.39222,-0.0159 -5.11944,0.46838 -6.54651,1.83555 -1.01509,0.97249 -1.1264,1.20298 -1.1264,2.33249 0,2.06413 0.70263,2.94274 3.30729,4.13566 0.87312,0.39989 2.99312,1.10113 4.7111,1.55832 8.9587,2.38407 11.84679,3.98046 13.47323,7.44733 2.59968,5.54141 -0.44274,11.37874 -7.10721,13.63619 -2.80733,0.95093 -8.35654,1.14978 -11.60629,0.4159 z"
       id="path60-6-7" /><path
       style="fill:#ffffff;fill-opacity:1"
       d="m -147.04735,-386.54498 c -7.27539,-0.6807 -13.45887,-2.08568 -18.78543,-4.26834 -13.9516,-5.71691 -25.25419,-16.09016 -32.17018,-29.52503 -0.56348,-1.09459 -0.96662,-2.04804 -0.89588,-2.11879 0.10554,-0.10553 5.22288,0.61844 7.29276,1.03174 0.32956,0.0658 1.06581,0.88716 1.82346,2.03424 5.34892,8.0983 11.29409,13.88604 19.18734,18.67924 1.93934,1.17768 7.05628,3.52147 9.53905,4.36933 9.94898,3.39753 20.95119,3.87317 31.05623,1.3426 9.94858,-2.4914 19.11452,-7.91256 26.35592,-15.58813 2.9089,-3.08331 5.804067,-6.9089 7.489247,-9.89608 l 0.65713,-1.16484 3.52778,-0.74174 c 1.94028,-0.40796 3.79567,-0.82041 4.12309,-0.91655 0.88141,-0.25881 0.77012,0.14282 -0.91095,3.2872 -2.15819,4.03684 -4.46069,7.56586 -6.68349,10.24374 -3.21361,3.87151 -4.1116,4.82645 -7.348897,7.81493 -3.20714,2.96064 -8.85785,6.86356 -12.90405,8.91278 -5.58034,2.82619 -11.76458,4.78444 -18.19124,5.76029 -3.99625,0.6068 -10.62205,0.98104 -13.16189,0.74341 z"
       id="path1-2-5-0-3" /></g></svg>
